<?xml version="1.0" encoding="utf-8"?>
<!-- Generator: Adobe Illustrator 17.1.0, SVG Export Plug-In . SVG Version: 6.00 Build 0)  -->
<!DOCTYPE svg PUBLIC "-//W3C//DTD SVG 1.1//EN" "http://www.w3.org/Graphics/SVG/1.1/DTD/svg11.dtd">
<svg version="1.1" id="Layer_1" xmlns="http://www.w3.org/2000/svg" xmlns:xlink="http://www.w3.org/1999/xlink" x="0px" y="0px"
	 viewBox="0 0 640 640" enable-background="new 0 0 640 640" xml:space="preserve">
<linearGradient id="SVGID_1_" gradientUnits="userSpaceOnUse" x1="319.4333" y1="622.1038" x2="319.4333" y2="18.4963" gradientTransform="matrix(-0.1984 0.9801 -0.9801 -0.1984 696.7373 70.7573)">
	<stop  offset="0" style="stop-color:#C08C29"/>
	<stop  offset="1" style="stop-color:#D7DF23"/>
</linearGradient>
<path fill="url(#SVGID_1_)" d="M319.6,622C152.9,622.1,17.8,487.1,17.7,320.5C17.6,153.8,152.6,18.6,319.3,18.6
	c166.7-0.1,301.8,134.9,301.9,301.6C621.3,486.8,486.2,622,319.6,622z"/>
<g id="XMLID_2_">
	<g>
		<radialGradient id="SVGID_2_" cx="319.4333" cy="320.3" r="275.0544" gradientUnits="userSpaceOnUse">
			<stop  offset="0" style="stop-color:#FFFFFF"/>
			<stop  offset="0.455" style="stop-color:#FCFCFC"/>
			<stop  offset="0.6189" style="stop-color:#F5F5F5"/>
			<stop  offset="0.7358" style="stop-color:#EBEBEC"/>
			<stop  offset="0.8303" style="stop-color:#DCDEDF"/>
			<stop  offset="0.9111" style="stop-color:#CACCCE"/>
			<stop  offset="0.9815" style="stop-color:#B4B6B8"/>
			<stop  offset="1" style="stop-color:#ADAFB2"/>
		</radialGradient>
		<path fill="url(#SVGID_2_)" d="M319.6,595.3c-37.2,0-72.8-7.4-105.2-20.8l104-253.2l0.6-0.6l0.3,0.9L319.6,595.3z"/>
		<path fill="#CC2036" d="M318.5,321.3l-104,253.2c-33.4-13.8-63.5-34-88.7-59.1L318.5,321.3z"/>
		<path fill="#CC2036" d="M319.6,595.3l-0.1-273.8l104.3,253.3C391.6,588,356.4,595.3,319.6,595.3z"/>
		<radialGradient id="SVGID_3_" cx="319.4333" cy="320.3" r="275.0544" gradientUnits="userSpaceOnUse">
			<stop  offset="0" style="stop-color:#FFFFFF"/>
			<stop  offset="0.455" style="stop-color:#FCFCFC"/>
			<stop  offset="0.6189" style="stop-color:#F5F5F5"/>
			<stop  offset="0.7358" style="stop-color:#EBEBEC"/>
			<stop  offset="0.8303" style="stop-color:#DCDEDF"/>
			<stop  offset="0.9111" style="stop-color:#CACCCE"/>
			<stop  offset="0.9815" style="stop-color:#B4B6B8"/>
			<stop  offset="1" style="stop-color:#ADAFB2"/>
		</radialGradient>
		<path fill="url(#SVGID_3_)" d="M318.5,321.3L125.7,515.4c-25.6-25.4-46.2-55.7-60.2-89.5l0,0l253.3-105.3L318.5,321.3z"/>
		<radialGradient id="SVGID_4_" cx="319.4333" cy="320.3" r="275.0544" gradientUnits="userSpaceOnUse">
			<stop  offset="0" style="stop-color:#FFFFFF"/>
			<stop  offset="0.455" style="stop-color:#FCFCFC"/>
			<stop  offset="0.6189" style="stop-color:#F5F5F5"/>
			<stop  offset="0.7358" style="stop-color:#EBEBEC"/>
			<stop  offset="0.8303" style="stop-color:#DCDEDF"/>
			<stop  offset="0.9111" style="stop-color:#CACCCE"/>
			<stop  offset="0.9815" style="stop-color:#B4B6B8"/>
			<stop  offset="1" style="stop-color:#ADAFB2"/>
		</radialGradient>
		<path fill="url(#SVGID_4_)" d="M423.7,574.8L319.4,321.5l0-1.2L457,457.7l56.4,57.5l0,0C487.9,540.6,457.5,561,423.7,574.8z"/>
		<path fill="#CC2036" d="M65.5,425.9L65.5,425.9c-13.5-32.5-21-68.1-21-105.5l274.4-0.1l-0.1,0.3L65.5,425.9z"/>
		<path fill="#CC2036" d="M513.4,515.3L513.4,515.3L457,457.7L319.4,320.3l254.1,105.3C559.5,459.4,538.9,489.8,513.4,515.3z"/>
		<radialGradient id="SVGID_5_" cx="319.4333" cy="320.3" r="275.0544" gradientUnits="userSpaceOnUse">
			<stop  offset="0" style="stop-color:#FFFFFF"/>
			<stop  offset="0.455" style="stop-color:#FCFCFC"/>
			<stop  offset="0.6189" style="stop-color:#F5F5F5"/>
			<stop  offset="0.7358" style="stop-color:#EBEBEC"/>
			<stop  offset="0.8303" style="stop-color:#DCDEDF"/>
			<stop  offset="0.9111" style="stop-color:#CACCCE"/>
			<stop  offset="0.9815" style="stop-color:#B4B6B8"/>
			<stop  offset="1" style="stop-color:#ADAFB2"/>
		</radialGradient>
		<path fill="url(#SVGID_5_)" d="M318.9,320.3l-274.4,0.1c0-37.4,7.4-73,20.9-105.5l0,0l253.5,105.1l0.1,0.1L318.9,320.3z"/>
		<radialGradient id="SVGID_6_" cx="319.4333" cy="320.3" r="275.0544" gradientUnits="userSpaceOnUse">
			<stop  offset="0" style="stop-color:#FFFFFF"/>
			<stop  offset="0.455" style="stop-color:#FCFCFC"/>
			<stop  offset="0.6189" style="stop-color:#F5F5F5"/>
			<stop  offset="0.7358" style="stop-color:#EBEBEC"/>
			<stop  offset="0.8303" style="stop-color:#DCDEDF"/>
			<stop  offset="0.9111" style="stop-color:#CACCCE"/>
			<stop  offset="0.9815" style="stop-color:#B4B6B8"/>
			<stop  offset="1" style="stop-color:#ADAFB2"/>
		</radialGradient>
		<path fill="url(#SVGID_6_)" d="M573.5,425.6L319.4,320.3l275-0.1C594.5,357.5,587,393.2,573.5,425.6z"/>
		<radialGradient id="SVGID_7_" cx="319.4333" cy="320.3" r="275.0544" gradientUnits="userSpaceOnUse">
			<stop  offset="0" style="stop-color:#FFFFFF"/>
			<stop  offset="0.455" style="stop-color:#FCFCFC"/>
			<stop  offset="0.6189" style="stop-color:#F5F5F5"/>
			<stop  offset="0.7358" style="stop-color:#EBEBEC"/>
			<stop  offset="0.8303" style="stop-color:#DCDEDF"/>
			<stop  offset="0.9111" style="stop-color:#CACCCE"/>
			<stop  offset="0.9815" style="stop-color:#B4B6B8"/>
			<stop  offset="1" style="stop-color:#ADAFB2"/>
		</radialGradient>
		<polygon fill="url(#SVGID_7_)" points="319.4,321.5 319.1,320.7 319.4,320.3 319.4,320.3 		"/>
		<radialGradient id="SVGID_8_" cx="319.4333" cy="320.3" r="275.0544" gradientUnits="userSpaceOnUse">
			<stop  offset="0" style="stop-color:#FFFFFF"/>
			<stop  offset="0.455" style="stop-color:#FCFCFC"/>
			<stop  offset="0.6189" style="stop-color:#F5F5F5"/>
			<stop  offset="0.7358" style="stop-color:#EBEBEC"/>
			<stop  offset="0.8303" style="stop-color:#DCDEDF"/>
			<stop  offset="0.9111" style="stop-color:#CACCCE"/>
			<stop  offset="0.9815" style="stop-color:#B4B6B8"/>
			<stop  offset="1" style="stop-color:#ADAFB2"/>
		</radialGradient>
		<polygon fill="url(#SVGID_8_)" points="318.5,321.3 318.7,320.6 319,320.5 319.1,320.7 		"/>
		<radialGradient id="SVGID_9_" cx="319.4333" cy="320.3" r="275.0544" gradientUnits="userSpaceOnUse">
			<stop  offset="0" style="stop-color:#FFFFFF"/>
			<stop  offset="0.455" style="stop-color:#FCFCFC"/>
			<stop  offset="0.6189" style="stop-color:#F5F5F5"/>
			<stop  offset="0.7358" style="stop-color:#EBEBEC"/>
			<stop  offset="0.8303" style="stop-color:#DCDEDF"/>
			<stop  offset="0.9111" style="stop-color:#CACCCE"/>
			<stop  offset="0.9815" style="stop-color:#B4B6B8"/>
			<stop  offset="1" style="stop-color:#ADAFB2"/>
		</radialGradient>
		<polygon fill="url(#SVGID_9_)" points="319,320.5 318.7,320.6 318.9,320.3 318.9,320.3 		"/>
		<radialGradient id="SVGID_10_" cx="319.4333" cy="320.3" r="275.0544" gradientUnits="userSpaceOnUse">
			<stop  offset="0" style="stop-color:#FFFFFF"/>
			<stop  offset="0.455" style="stop-color:#FCFCFC"/>
			<stop  offset="0.6189" style="stop-color:#F5F5F5"/>
			<stop  offset="0.7358" style="stop-color:#EBEBEC"/>
			<stop  offset="0.8303" style="stop-color:#DCDEDF"/>
			<stop  offset="0.9111" style="stop-color:#CACCCE"/>
			<stop  offset="0.9815" style="stop-color:#B4B6B8"/>
			<stop  offset="1" style="stop-color:#ADAFB2"/>
		</radialGradient>
		<polygon fill="url(#SVGID_10_)" points="319.1,320.7 319,320.5 319.4,320.3 		"/>
		<radialGradient id="SVGID_11_" cx="319.4333" cy="320.3" r="275.0544" gradientUnits="userSpaceOnUse">
			<stop  offset="0" style="stop-color:#FFFFFF"/>
			<stop  offset="0.455" style="stop-color:#FCFCFC"/>
			<stop  offset="0.6189" style="stop-color:#F5F5F5"/>
			<stop  offset="0.7358" style="stop-color:#EBEBEC"/>
			<stop  offset="0.8303" style="stop-color:#DCDEDF"/>
			<stop  offset="0.9111" style="stop-color:#CACCCE"/>
			<stop  offset="0.9815" style="stop-color:#B4B6B8"/>
			<stop  offset="1" style="stop-color:#ADAFB2"/>
		</radialGradient>
		<polygon fill="url(#SVGID_11_)" points="319.4,320.3 319,320.5 318.9,320.3 		"/>
		<radialGradient id="SVGID_12_" cx="319.4333" cy="320.3" r="275.0544" gradientUnits="userSpaceOnUse">
			<stop  offset="0" style="stop-color:#FFFFFF"/>
			<stop  offset="0.455" style="stop-color:#FCFCFC"/>
			<stop  offset="0.6189" style="stop-color:#F5F5F5"/>
			<stop  offset="0.7358" style="stop-color:#EBEBEC"/>
			<stop  offset="0.8303" style="stop-color:#DCDEDF"/>
			<stop  offset="0.9111" style="stop-color:#CACCCE"/>
			<stop  offset="0.9815" style="stop-color:#B4B6B8"/>
			<stop  offset="1" style="stop-color:#ADAFB2"/>
		</radialGradient>
		<polygon fill="url(#SVGID_12_)" points="318.9,320.3 318.9,320.3 318.9,320.2 		"/>
		<radialGradient id="SVGID_13_" cx="319.4333" cy="320.3" r="1.5148" gradientUnits="userSpaceOnUse">
			<stop  offset="0" style="stop-color:#FFFFFF"/>
			<stop  offset="0.455" style="stop-color:#FCFCFC"/>
			<stop  offset="0.6189" style="stop-color:#F5F5F5"/>
			<stop  offset="0.7358" style="stop-color:#EBEBEC"/>
			<stop  offset="0.8303" style="stop-color:#DCDEDF"/>
			<stop  offset="0.9111" style="stop-color:#CACCCE"/>
			<stop  offset="0.9815" style="stop-color:#B4B6B8"/>
			<stop  offset="1" style="stop-color:#ADAFB2"/>
		</radialGradient>
		<polygon fill="url(#SVGID_13_)" points="319.4,320.3 318.9,320.3 318.9,320.2 318.9,320.1 		"/>
		<radialGradient id="SVGID_14_" cx="319.4333" cy="320.3" r="275.0544" gradientUnits="userSpaceOnUse">
			<stop  offset="0" style="stop-color:#FFFFFF"/>
			<stop  offset="0.455" style="stop-color:#FCFCFC"/>
			<stop  offset="0.6189" style="stop-color:#F5F5F5"/>
			<stop  offset="0.7358" style="stop-color:#EBEBEC"/>
			<stop  offset="0.8303" style="stop-color:#DCDEDF"/>
			<stop  offset="0.9111" style="stop-color:#CACCCE"/>
			<stop  offset="0.9815" style="stop-color:#B4B6B8"/>
			<stop  offset="1" style="stop-color:#ADAFB2"/>
		</radialGradient>
		<polygon fill="url(#SVGID_14_)" points="318.9,320.2 318.8,320.1 318.9,320.1 		"/>
		<radialGradient id="SVGID_15_" cx="453.9506" cy="230.347" r="114.4269" gradientUnits="userSpaceOnUse">
			<stop  offset="0" style="stop-color:#FFFFFF"/>
			<stop  offset="0.455" style="stop-color:#FCFCFC"/>
			<stop  offset="0.6189" style="stop-color:#F5F5F5"/>
			<stop  offset="0.7358" style="stop-color:#EBEBEC"/>
			<stop  offset="0.8303" style="stop-color:#DCDEDF"/>
			<stop  offset="0.9111" style="stop-color:#CACCCE"/>
			<stop  offset="0.9815" style="stop-color:#B4B6B8"/>
			<stop  offset="1" style="stop-color:#ADAFB2"/>
		</radialGradient>
		<path fill="url(#SVGID_15_)" d="M319.4,320.3L319.4,320.3L319.4,320.3l137.4-137.6l56.3-57.6c25.6,25.4,46.2,55.8,60.2,89.5l0,0
			L319.4,320.3z"/>
		<path fill="#CC2036" d="M594.4,320.2l-275,0.1l254-105.6l0,0C586.9,247.2,594.4,282.8,594.4,320.2z"/>
		<radialGradient id="SVGID_16_" cx="319.4333" cy="320.3" r="1.3968" gradientUnits="userSpaceOnUse">
			<stop  offset="0" style="stop-color:#FFFFFF"/>
			<stop  offset="0.455" style="stop-color:#FCFCFC"/>
			<stop  offset="0.6189" style="stop-color:#F5F5F5"/>
			<stop  offset="0.7358" style="stop-color:#EBEBEC"/>
			<stop  offset="0.8303" style="stop-color:#DCDEDF"/>
			<stop  offset="0.9111" style="stop-color:#CACCCE"/>
			<stop  offset="0.9815" style="stop-color:#B4B6B8"/>
			<stop  offset="1" style="stop-color:#ADAFB2"/>
		</radialGradient>
		<polygon fill="url(#SVGID_16_)" points="319.4,320.3 318.9,320.1 319,319.9 		"/>
		<radialGradient id="SVGID_17_" cx="319.4333" cy="320.3" r="2.3411" gradientUnits="userSpaceOnUse">
			<stop  offset="0" style="stop-color:#FFFFFF"/>
			<stop  offset="0.455" style="stop-color:#FCFCFC"/>
			<stop  offset="0.6189" style="stop-color:#F5F5F5"/>
			<stop  offset="0.7358" style="stop-color:#EBEBEC"/>
			<stop  offset="0.8303" style="stop-color:#DCDEDF"/>
			<stop  offset="0.9111" style="stop-color:#CACCCE"/>
			<stop  offset="0.9815" style="stop-color:#B4B6B8"/>
			<stop  offset="1" style="stop-color:#ADAFB2"/>
		</radialGradient>
		<polygon fill="url(#SVGID_17_)" points="319.4,320.3 319,319.9 319.4,318.9 319.4,320.3 		"/>
		<path fill="#CC2036" d="M456.9,182.7L319.4,320.3l0-1.4l104-253.2c33.8,13.8,64.2,34.2,89.7,59.5L456.9,182.7z"/>
		<radialGradient id="SVGID_18_" cx="319.4333" cy="320.3" r="275.0544" gradientUnits="userSpaceOnUse">
			<stop  offset="0" style="stop-color:#FFFFFF"/>
			<stop  offset="0.455" style="stop-color:#FCFCFC"/>
			<stop  offset="0.6189" style="stop-color:#F5F5F5"/>
			<stop  offset="0.7358" style="stop-color:#EBEBEC"/>
			<stop  offset="0.8303" style="stop-color:#DCDEDF"/>
			<stop  offset="0.9111" style="stop-color:#CACCCE"/>
			<stop  offset="0.9815" style="stop-color:#B4B6B8"/>
			<stop  offset="1" style="stop-color:#ADAFB2"/>
		</radialGradient>
		<polygon fill="url(#SVGID_18_)" points="318.9,320.1 318.8,320.1 318.6,319.5 319,319.9 		"/>
		<path fill="#CC2036" d="M318.8,320.1L65.3,214.9l0,0c14-33.8,34.6-64.2,60.1-89.6l0,0l193.1,194.1L318.8,320.1z"/>
		<path fill="#CC2036" d="M319,319.9l-0.4-0.4L214.3,66.1c32.4-13.4,67.8-20.8,105-20.8l0.1,273.6L319,319.9z"/>
		<radialGradient id="SVGID_19_" cx="319.4333" cy="320.3" r="275.0544" gradientUnits="userSpaceOnUse">
			<stop  offset="0" style="stop-color:#FFFFFF"/>
			<stop  offset="0.455" style="stop-color:#FCFCFC"/>
			<stop  offset="0.6189" style="stop-color:#F5F5F5"/>
			<stop  offset="0.7358" style="stop-color:#EBEBEC"/>
			<stop  offset="0.8303" style="stop-color:#DCDEDF"/>
			<stop  offset="0.9111" style="stop-color:#CACCCE"/>
			<stop  offset="0.9815" style="stop-color:#B4B6B8"/>
			<stop  offset="1" style="stop-color:#ADAFB2"/>
		</radialGradient>
		<path fill="url(#SVGID_19_)" d="M214.3,66.1l104.3,253.3L125.5,125.4l0,0C150.7,100.2,180.8,80,214.3,66.1z"/>
		<radialGradient id="SVGID_20_" cx="319.4333" cy="320.3" r="275.0544" gradientUnits="userSpaceOnUse">
			<stop  offset="0" style="stop-color:#FFFFFF"/>
			<stop  offset="0.455" style="stop-color:#FCFCFC"/>
			<stop  offset="0.6189" style="stop-color:#F5F5F5"/>
			<stop  offset="0.7358" style="stop-color:#EBEBEC"/>
			<stop  offset="0.8303" style="stop-color:#DCDEDF"/>
			<stop  offset="0.9111" style="stop-color:#CACCCE"/>
			<stop  offset="0.9815" style="stop-color:#B4B6B8"/>
			<stop  offset="1" style="stop-color:#ADAFB2"/>
		</radialGradient>
		<path fill="url(#SVGID_20_)" d="M319.4,318.9l-0.1-273.6c36.9,0,72,7.2,104.2,20.4L319.4,318.9z"/>
	</g>
	<g>
	</g>
</g>
<path fill="#CC2036" d="M521.7,121.1c-3.1-0.6-5.1-3.7-4.5-6.8c0.6-3.1,3.7-5.1,6.8-4.5s5.1,3.7,4.5,6.8
	C527.9,119.7,524.9,121.7,521.7,121.1z"/>
<circle fill="#CC2036" cx="428.7" cy="52.9" r="5.8"/>
<circle fill="#CC2036" cx="319.3" cy="31.6" r="5.8"/>
<path fill="#CC2036" d="M207.7,58.7c-3.1-0.6-5.1-3.7-4.5-6.8c0.6-3.1,3.7-5.1,6.8-4.5c3.1,0.6,5.1,3.7,4.5,6.8
	C213.9,57.3,210.9,59.3,207.7,58.7z"/>
<circle fill="#CC2036" cx="115.8" cy="115.6" r="5.8"/>
<circle fill="#CC2036" cx="52.6" cy="209.7" r="5.8"/>
<path fill="#CC2036" d="M29.5,326.1c-3.1-0.6-5.1-3.7-4.5-6.8c0.6-3.1,3.7-5.1,6.8-4.5c3.1,0.6,5.1,3.7,4.5,6.8
	C35.7,324.7,32.7,326.7,29.5,326.1z"/>
<circle fill="#CC2036" cx="52.8" cy="431.2" r="5.8"/>
<path fill="#CC2036" d="M115.3,530c-3.1-0.6-5.1-3.7-4.5-6.8c0.6-3.1,3.7-5.1,6.8-4.5c3.1,0.6,5.1,3.7,4.5,6.8
	C121.5,528.6,118.4,530.6,115.3,530z"/>
<circle fill="#CC2036" cx="209.2" cy="587.2" r="5.8"/>
<circle fill="#CC2036" cx="319.6" cy="609.1" r="5.8"/>
<circle fill="#CC2036" cx="586.1" cy="209.4" r="5.8"/>
<path fill="#CC2036" d="M607,325.8c-3.1-0.6-5.1-3.7-4.5-6.8c0.6-3.1,3.7-5.1,6.8-4.5c3.1,0.6,5.1,3.7,4.5,6.8
	C613.2,324.4,610.2,326.4,607,325.8z"/>
<path fill="#CC2036" d="M585.1,436.6c-3.1-0.6-5.1-3.7-4.5-6.8c0.6-3.1,3.7-5.1,6.8-4.5c3.1,0.6,5.1,3.7,4.5,6.8
	C591.3,435.2,588.2,437.2,585.1,436.6z"/>
<circle fill="#CC2036" cx="523.1" cy="525" r="5.8"/>
<path fill="#CC2036" d="M427.8,593.2c-3.1-0.6-5.1-3.7-4.5-6.8c0.6-3.1,3.7-5.1,6.8-4.5c3.1,0.6,5.1,3.7,4.5,6.8
	C434,591.8,430.9,593.9,427.8,593.2z"/>
<g>
	
		<text transform="matrix(-0.1984 0.9801 -0.9801 -0.1984 555.24 347.3283)" fill="#1E1D1D" stroke="#000000" stroke-width="5" stroke-miterlimit="10" font-family="'Gadugi'" font-size="33">10</text>
</g>
<g>
	
		<text transform="matrix(0.2031 -0.9792 0.9792 0.2031 83.0067 294.677)" fill="#1E1D1D" stroke="#000000" stroke-width="5" stroke-miterlimit="10" font-family="'Gadugi'" font-size="33">10</text>
</g>
<g>
	
		<text transform="matrix(-0.542 0.8404 -0.8404 -0.542 531.0544 428.602)" fill="#FFFFFF" stroke="#FFFFFF" stroke-width="2" stroke-miterlimit="10" font-family="'Gadugi'" font-size="32.9999">100</text>
</g>
<g>
	
		<text transform="matrix(0.5716 -0.8205 0.8205 0.5716 108.3187 212.9356)" fill="#FFFFFF" stroke="#FFFFFF" stroke-width="2" stroke-miterlimit="10" font-family="'Gadugi'" font-size="32.9998">100</text>
</g>
<g>
	
		<text transform="matrix(-0.8318 0.555 -0.555 -0.8318 465.6245 506.7065)" fill="#1E1D1D" stroke="#000000" stroke-width="5" stroke-miterlimit="10" font-family="'Gadugi'" font-size="33">10</text>
</g>
<g>
	
		<text transform="matrix(0.8345 -0.551 0.551 0.8345 173.3123 134.8071)" fill="#1E1D1D" stroke="#000000" stroke-width="5" stroke-miterlimit="10" font-family="'Gadugi'" font-size="33">10</text>
</g>
<g>
	
		<text transform="matrix(0.5631 0.8264 -0.8264 0.5631 508.5568 168.3676)" fill="#1E1D1D" stroke="#000000" stroke-width="5" stroke-miterlimit="10" font-family="'Gadugi'" font-size="33.0001">10</text>
</g>
<g>
	
		<text transform="matrix(-0.5592 -0.8291 0.8291 -0.5592 133.5603 466.4637)" fill="#1E1D1D" stroke="#000000" stroke-width="5" stroke-miterlimit="10" font-family="'Gadugi'" font-size="33">10</text>
</g>
<g>
	
		<text transform="matrix(-0.9804 -0.1971 0.1971 -0.9804 291.0729 554.5875)" fill="#1E1D1D" stroke="#000000" stroke-width="5" stroke-miterlimit="10" font-family="'Gadugi'" font-size="32.9997">10</text>
</g>
<g>
	
		<text transform="matrix(0.9865 0.1635 -0.1635 0.9865 345.4762 84.0176)" fill="#1E1D1D" stroke="#000000" stroke-width="5" stroke-miterlimit="10" font-family="'Gadugi'" font-size="32.9999">10</text>
</g>
<text transform="matrix(0.2233 0.9748 -0.9748 0.2233 546.5684 255.12)" fill="#FFFFFF" stroke="#FFFFFF" stroke-width="2" stroke-miterlimit="10" font-family="'Gadugi'" font-size="33.0002">50</text>
<text transform="matrix(-0.2047 -0.9788 0.9788 -0.2047 90.5155 383.6857)" fill="#FFFFFF" stroke="#FFFFFF" stroke-width="2" stroke-miterlimit="10" font-family="'Gadugi'" font-size="33.0002">50</text>
<g>
	
		<text transform="matrix(0.9776 -0.2103 0.2103 0.9776 248.0045 93.0742)" fill="#FFFFFF" stroke="#FFFFFF" stroke-width="2" stroke-miterlimit="10" font-family="'Gadugi'" font-size="33.0002">500</text>
</g>
<g>
	
		<text transform="matrix(-0.9841 0.1777 -0.1777 -0.9841 392.1156 546.8591)" fill="#FFFFFF" stroke="#FFFFFF" stroke-width="2" stroke-miterlimit="10" font-family="'Gadugi'" font-size="33.0001">500</text>
</g>
<g>
	
		<text transform="matrix(0.8402 0.5423 -0.5423 0.8402 428.489 109.6172)" fill="#FFFFFF" stroke="#FFFFFF" stroke-width="2" stroke-miterlimit="10" font-family="'Gadugi'" font-size="33.0002">100</text>
</g>
<g>
	
		<text transform="matrix(-0.8449 -0.535 0.535 -0.8449 211.5069 529.9688)" fill="#FFFFFF" stroke="#FFFFFF" stroke-width="2" stroke-miterlimit="10" font-family="'Gadugi'" font-size="33.0001">100</text>
</g>
<circle opacity="0.17" fill="#FFFFFF" cx="319.5" cy="320.2" r="220"/>
</svg>
